# xmcd
#
# Track frame offsets:
# 150
# 16364
# 30235
# 48563
# 61011
# 75309
# 93409
# 108114
# 123221
# 139262
# 158146
# 171164
# 185303
#
# Disc length: 2692 seconds
#
#
# Revision: 0
# Processed by: cddbd v1.5.2PL0 Copyright (c) Steve Scherf et al.
# Submitted via: FreeRIP 2.944 
#
DISCID=930a820d
DTITLE=Batidao Sertanejo 2 - Batidao Sertanejo 2
DYEAR=2009
DGENRE=Country
TTITLE0=Coisa Isoterica
TTITLE1=Misserias
TTITLE2=O amor de antes
TTITLE3=Doida
TTITLE4=Filme de amor
TTITLE5=A carta
TTITLE6=Virou rotina
TTITLE7=Flechada do cupido
TTITLE8=Menininha
TTITLE9=Minta finja
TTITLE10=Perdoa amor
TTITLE11=Apaixonado
TTITLE12=So de voce
EXTD=
EXTT0=
EXTT1=
EXTT2=
EXTT3=
EXTT4=
EXTT5=
EXTT6=
EXTT7=
EXTT8=
EXTT9=
EXTT10=
EXTT11=
EXTT12=
PLAYORDER=
